<svg width="1553" height="338" viewBox="0 0 1553 338" fill="none" xmlns="http://www.w3.org/2000/svg">
<g filter="url(#filter0_f_133_1112)">
<path d="M7 43.5667C138.847 20.0667 477.535 14.8667 777.504 182.067C1152.47 391.067 1543.99 280.067 1545.5 281.567" stroke="#24FD66" stroke-width="5"/>
<path d="M7 43.5661C138.847 20.0661 505.538 -27.332 777.504 182.066C1078.18 413.567 1543.99 280.066 1545.5 281.566" stroke="#24FD66" stroke-width="5"/>
<path d="M7 43.5667C138.847 20.0667 546.961 -71.9037 777.504 182.067C1014.43 443.067 1543.99 280.067 1545.5 281.567" stroke="#24FD66" stroke-width="5"/>
<path d="M9.5098 280C193.393 206.5 604.128 73.2 775.998 128C990.836 196.5 1193.63 137.5 1542.49 43" stroke="#24FD66" stroke-width="6"/>
<path d="M1546 43.5812C1414.11 20.1157 1075.31 14.9233 775.245 181.878C400.16 390.571 8.50631 279.734 6.99995 281.232" stroke="#24FD66" stroke-width="5"/>
<path d="M1546 43.5805C1414.11 20.115 1047.3 -27.2134 775.245 181.877C474.474 413.038 8.50631 279.733 6.99995 281.231" stroke="#24FD66" stroke-width="5"/>
<path d="M1546 43.5812C1414.11 20.1157 1005.86 -71.7198 775.245 181.878C538.244 442.495 8.50631 279.734 6.99995 281.232" stroke="#24FD66" stroke-width="5"/>
<path d="M1543.49 279.667C1359.55 206.275 948.677 73.1711 776.751 127.891C561.843 196.29 358.987 137.377 10.0128 43.0154" stroke="#24FD66" stroke-width="6"/>
</g>
<defs>
<filter id="filter0_f_133_1112" x="0.237244" y="0.500244" width="1552.03" height="337.473" filterUnits="userSpaceOnUse" color-interpolation-filters="sRGB">
<feFlood flood-opacity="0" result="BackgroundImageFix"/>
<feBlend mode="normal" in="SourceGraphic" in2="BackgroundImageFix" result="shape"/>
<feGaussianBlur stdDeviation="2.5" result="effect1_foregroundBlur_133_1112"/>
</filter>
</defs>
</svg>
