<svg width="407" height="380" viewBox="0 0 407 380" fill="none" xmlns="http://www.w3.org/2000/svg">
<path d="M203.055 372.44L202.933 372.378C153.556 346.17 113.475 243.064 113.709 142.537V142.173H114.076C214.656 129.542 336.624 140.561 385.979 166.738L386.191 166.852V167.081C385.99 267.65 303.858 359.778 203.2 372.419L203.055 372.44ZM114.588 142.88C114.488 242.96 154.224 345.473 203.267 371.588C303.469 358.936 385.077 267.328 385.389 167.247C336.068 141.289 214.79 130.353 114.588 142.88Z" fill="#24FD66"/>
<path d="M294.951 335.94C270.168 322.79 208.822 317.228 158.221 323.611L158.109 322.842C208.867 316.469 270.446 322.041 295.363 335.254L294.951 335.94Z" fill="#24FD66"/>
<path d="M360.461 262.359C317.987 239.831 212.908 230.35 126.223 241.234L126.111 240.465C212.953 229.56 318.265 239.082 360.873 261.683L360.461 262.359Z" fill="#24FD66"/>
<path d="M203.3 372.398L202.977 371.681C264.746 347.636 315.159 246.515 315.359 146.258H316.194C315.994 246.807 265.347 348.249 203.3 372.398Z" fill="#24FD66"/>
<path d="M203.545 372.139L202.733 371.941C210.905 343.02 217.707 237.835 217.907 137.453H218.742C218.542 237.887 211.728 343.165 203.545 372.139Z" fill="#24FD66"/>
<path d="M180.276 373.875C142.066 373.875 106.394 361.608 77.9924 338.373C59.901 323.489 45.5987 305.02 36.1304 284.315C25.9432 262.483 20.7884 238.459 20.8107 213.01C5.53546 204.849 -1.54546 195.763 0.324972 186.719C4.36644 167.549 47.9096 150.489 114.076 142.173L114.544 142.11V142.557C114.343 242.835 154.179 345.64 203.345 371.723L204.458 372.294L203.233 372.44C195.624 373.395 187.954 373.875 180.276 373.875V373.875ZM113.698 142.984C48.1657 151.3 5.05672 168.089 1.14885 186.916C-0.665914 195.649 6.34821 204.496 21.4341 212.49L21.6457 212.604V212.864C21.59 238.292 26.7226 262.255 36.8875 284.086C46.3227 304.668 60.5554 323.025 78.5491 337.822C112.072 365.246 155.827 377.326 201.864 371.827C153.032 344.725 113.631 242.648 113.709 142.984H113.698Z" fill="#24FD66"/>
<path d="M111.059 359.019C103.199 354.861 99.5582 350.172 100.527 345.504C102.553 335.732 124.597 327.052 158.065 322.852L158.176 323.621C125.076 327.78 103.31 336.221 101.395 345.66C100.493 349.975 104 354.362 111.516 358.354L111.059 359.019Z" fill="#24FD66"/>
<path d="M45.772 301.873C32.4118 294.804 26.2438 286.903 27.8804 279.002C31.3318 262.369 68.9631 247.617 126.112 240.444L126.223 241.214C69.4419 248.345 32.0778 262.878 28.6932 279.148C27.1345 286.664 33.1466 294.284 46.1839 301.177L45.772 301.873Z" fill="#24FD66"/>
<path d="M203.066 372.419C109.545 356.181 33.7255 261.184 33.9259 160.563H34.7609C34.5605 260.789 110.124 355.484 203.211 371.65L203.066 372.419Z" fill="#24FD66"/>
<path d="M203.133 372.43C91.208 370.122 0.391816 286.394 0.592219 185.773H1.42723C1.22683 285.957 91.7201 369.342 203.144 371.64L203.133 372.43Z" fill="#24FD66"/>
<path d="M225.679 378.49C217.703 378.342 209.906 376.257 203.055 372.44C156.384 378.272 111.983 366.203 78.0036 338.373C59.9121 323.489 45.6098 305.02 36.1415 284.315C25.9209 262.39 20.7661 238.313 20.8218 212.781V212.116L21.4453 212.438C70.6555 238.552 192.401 249.53 292.814 236.92L293.293 236.858V237.305C293.159 305.189 274.622 357.366 244.929 373.49C239.107 376.736 232.459 378.463 225.679 378.49ZM203.222 371.629L203.345 371.702C217.818 379.395 231.713 379.79 244.539 372.845C273.92 356.919 292.279 305.189 292.491 237.804C192.423 250.279 71.3569 239.394 21.6902 213.498C21.6902 238.677 26.8562 262.411 36.932 284.055C46.3672 304.637 60.5999 322.994 78.5937 337.791C112.417 365.464 156.64 377.492 203.122 371.65L203.222 371.629Z" fill="#24FD66"/>
<path d="M204.013 374.072C165.847 374.072 128.984 368.531 111.059 359.019L111.471 358.343C136.254 371.494 197.6 377.056 248.202 370.662L248.313 371.442C233.624 373.228 218.825 374.106 204.013 374.072V374.072Z" fill="#24FD66"/>
<path d="M204.703 327.613C139.427 327.613 76.4004 318.122 45.7721 301.873L46.184 301.198C88.6584 323.736 193.725 333.206 280.422 322.322L280.522 323.091C255.384 326.158 230.055 327.668 204.703 327.613V327.613Z" fill="#24FD66"/>
<path d="M176.936 377.607C165.068 377.576 153.484 374.211 143.691 367.949C110.436 347.209 90.6624 296.998 90.7848 233.635H91.6199C91.4974 296.738 111.137 346.7 144.159 367.294C161.761 378.282 182.102 379.769 202.955 371.681L203.278 372.398C194.954 375.747 186 377.517 176.936 377.607Z" fill="#24FD66"/>
<path d="M199.058 379.863H198.869C191.354 378.948 188.125 310.211 188.259 242.44H189.094C188.916 331.325 193.937 378.459 198.981 379.073C199.515 379.166 200.873 378.553 202.733 371.941L203.545 372.139C202.065 377.388 200.628 379.863 199.058 379.863Z" fill="#24FD66"/>
<path d="M225.679 378.49C218.264 378.49 210.604 376.411 202.933 372.378L201.819 371.806L203.055 371.65C224.913 368.83 246.067 362.436 265.548 352.761C282.426 328.04 292.324 286.914 292.424 237.367V237.024H292.78C329.287 232.44 358.869 225.214 378.642 216.461C383.024 200.329 385.267 183.755 385.322 167.112V166.447L385.946 166.769C401.366 174.951 408.513 184.089 406.632 193.175C404.862 201.71 395.276 209.808 379.366 216.95C363.445 275.509 320.859 326.418 266.116 353.416C259.925 362.439 252.755 369.28 244.895 373.573C239.075 376.785 232.439 378.483 225.679 378.49V378.49ZM204.436 372.253C218.553 379.405 232.036 379.603 244.517 372.835C251.987 368.791 258.745 362.439 264.668 354.071C245.835 363.268 225.47 369.419 204.436 372.263V372.253ZM293.292 237.689C293.148 286.467 283.506 327.094 267.04 352.043C320.77 325.087 362.554 274.958 378.375 217.324C358.591 226.005 329.298 233.157 293.292 237.7V237.689ZM386.179 167.726C386.071 183.99 383.877 200.185 379.644 215.962C394.942 209.049 404.138 201.2 405.841 192.967C407.634 184.369 400.831 175.647 386.179 167.736V167.726Z" fill="#24FD66"/>
<path d="M248.313 371.442L248.202 370.662C281.302 366.504 303.079 358.073 305.038 348.634C305.929 344.319 302.422 339.932 294.907 335.94L295.319 335.254C303.179 339.413 306.82 344.101 305.851 348.769C303.858 358.551 281.78 367.232 248.313 371.442Z" fill="#24FD66"/>
<path d="M280.478 323.06L280.378 322.291C337.159 315.159 374.512 300.626 377.896 284.356C379.455 276.84 373.443 269.22 360.417 262.328L360.829 261.652C374.189 268.731 380.346 276.632 378.72 284.523C375.313 301.146 337.671 315.918 280.478 323.06Z" fill="#24FD66"/>
<path d="M230.054 374.779C221 374.768 211.966 373.978 203.066 372.419L203.211 371.65C244.26 378.781 283.874 369.571 314.758 345.66C351.187 317.436 372.14 271.413 372.251 219.372H373.086C372.975 271.642 351.933 317.893 315.292 346.201C291.378 364.815 261.187 374.937 230.054 374.779Z" fill="#24FD66"/>
<path d="M207.91 372.471C206.317 372.471 204.725 372.471 203.133 372.471V371.691C258.523 372.825 310.204 354.091 348.771 318.922C385.3 285.656 405.474 241.318 405.552 194.173H406.387C406.298 241.536 386.035 286.04 349.35 319.494C311.752 353.738 261.673 372.471 207.91 372.471Z" fill="#24FD66"/>
<path d="M386.18 167.726L385.556 167.403C336.346 141.289 214.612 130.311 114.188 142.921L113.709 142.984V142.537C113.842 74.6415 132.38 22.4649 162.084 6.35139C174.932 -0.613803 189.406 -0.239554 203.946 7.39098C250.607 1.56932 295.018 13.6285 328.998 41.4581C347.086 56.3444 361.388 74.8128 370.86 95.5163C381.08 117.441 386.235 141.507 386.191 167.05L386.18 167.726ZM201.898 136.912C277.071 136.912 349.651 147.776 385.356 166.395C385.356 141.206 380.179 117.472 370.103 95.8386C360.668 75.2538 346.435 56.8927 328.441 42.0922C294.618 14.4185 250.417 2.40099 203.924 8.23304H203.779L203.657 8.17066C189.183 0.467362 175.288 0.0827155 162.463 7.01673C133.126 22.9639 114.767 74.6935 114.588 142.09C143.539 138.58 172.704 136.851 201.898 136.912V136.912Z" fill="#24FD66"/>
<path d="M360.829 78.6959C318.332 56.1578 213.265 46.6872 126.59 57.5716L126.479 56.7919C213.32 45.8867 318.621 55.4093 361.24 78.0098L360.829 78.6959Z" fill="#24FD66"/>
<path d="M295.53 21.5812C270.747 8.43053 209.413 2.86877 158.8 9.2622L158.688 8.49291C209.446 2.12027 271.025 7.68203 295.942 20.9055L295.53 21.5812Z" fill="#24FD66"/>
<path d="M316.194 146.258H315.359C315.482 83.1556 295.842 33.183 262.82 12.5888C245.218 1.60047 224.888 0.113871 204.024 8.21221L203.701 7.48451C224.855 -0.738583 245.43 0.810393 263.288 11.9339C296.544 32.684 316.317 82.9165 316.194 146.258Z" fill="#24FD66"/>
<path d="M218.742 137.453H217.907C218.13 48.6103 213.064 1.42374 208.021 0.789593C207.52 0.716822 206.139 1.29899 204.269 7.92112L203.456 7.7236C205.004 2.2658 206.507 -0.177218 208.132 0.00990664C215.647 0.94553 218.876 69.7138 218.742 137.453Z" fill="#24FD66"/>
<path d="M21.6568 213.498L21.0333 213.176C5.60225 204.995 -1.54548 195.857 0.336084 186.771C2.11745 178.236 11.6923 170.137 27.6021 162.996C43.523 104.425 86.1088 53.5172 140.863 26.5192C147.054 17.4957 154.224 10.6552 162.084 6.36174C174.965 -0.624249 189.484 -0.22921 204.068 7.50528L205.182 8.07705L203.957 8.23299C182.084 11.0476 160.914 17.4419 141.42 27.1222C124.542 51.8434 114.7 92.9693 114.544 142.516V142.859H114.188C77.6807 147.443 48.11 154.668 28.3369 163.422C23.9551 179.554 21.7116 196.128 21.6568 212.771V213.498ZM27.3571 163.921C12.0708 170.834 2.86339 178.683 1.15996 186.916C-0.632535 195.524 6.17005 204.246 20.8218 212.157C20.9305 195.893 23.1246 179.698 27.3571 163.921V163.921ZM139.973 27.8187C86.2312 54.8478 44.4471 104.924 28.5818 162.569C48.4106 153.889 77.703 146.736 113.709 142.193C113.854 93.4059 123.495 52.7687 139.973 27.8187ZM181.389 2.10985C174.722 2.13194 168.184 3.83051 162.462 7.02707C154.992 11.0814 148.234 17.4229 142.311 25.7395C161.152 16.5755 181.516 10.4493 202.543 7.61963C195.299 3.95337 188.248 2.11678 181.389 2.10985Z" fill="#24FD66"/>
<path d="M46.1283 118.262C32.7681 111.183 26.6113 103.282 28.2479 95.3915C31.6882 78.7582 69.3306 64.0065 126.479 56.8334L126.59 57.6131C69.8094 64.7343 32.4452 79.278 29.0606 95.5475C27.5019 103.064 33.5141 110.673 46.5403 117.566L46.1283 118.262Z" fill="#24FD66"/>
<path d="M111.683 44.6287C103.822 40.4704 100.182 35.7819 101.15 31.1142C103.176 21.3421 125.232 12.6616 158.688 8.46167L158.8 9.23097C125.7 13.3893 103.934 21.8307 102.019 31.2597C101.117 35.574 104.624 39.9714 112.139 43.9634L111.683 44.6287Z" fill="#24FD66"/>
<path d="M34.761 160.563H33.926C34.0262 108.282 55.0797 62.0314 91.7202 33.6716C122.794 9.59486 162.652 0.290604 203.935 7.46372L203.79 8.23301C162.741 1.10148 123.128 10.3122 92.2434 34.2226C55.8145 62.4888 34.8612 108.521 34.761 160.563Z" fill="#24FD66"/>
<path d="M1.42715 185.835H0.592133C0.692334 138.472 20.9442 93.9569 57.6403 60.5032C96.3738 25.1574 148.301 6.37216 203.868 7.48452V8.2642C148.512 7.12066 96.808 25.8643 58.2415 61.0334C21.6902 94.352 1.52735 138.617 1.42715 185.835Z" fill="#24FD66"/>
<path d="M205.104 243.012C129.496 243.012 56.5048 231.992 21.0668 213.176L20.8553 213.062V212.864C21.0668 112.233 103.11 20.105 203.812 7.46368H203.946L204.069 7.52606C253.468 33.7339 293.493 136.85 293.293 237.378V237.721H292.925C263.809 241.292 234.471 243.06 205.104 243.012V243.012ZM21.6569 212.604C70.945 238.594 192.245 249.541 292.458 237.014C292.569 136.933 252.833 34.4096 203.779 8.30575C103.622 20.9055 21.9686 112.513 21.6569 212.604Z" fill="#24FD66"/>
<path d="M205.07 143.94C139.795 143.94 76.7678 134.459 46.1283 118.21L46.5402 117.524C88.9812 140.094 194.093 149.543 280.778 138.648L280.89 139.428C255.751 142.491 230.422 143.998 205.07 143.94V143.94Z" fill="#24FD66"/>
<path d="M204.636 59.6818C166.471 59.6818 129.607 54.1304 111.682 44.6287L112.094 43.9529C136.889 57.0933 198.223 62.6654 248.836 56.272L248.948 57.0413C234.256 58.8352 219.453 59.7173 204.636 59.6818V59.6818Z" fill="#24FD66"/>
<path d="M91.6422 233.656H90.8072C91.0076 133.108 141.654 31.6548 203.701 7.50531L204.024 8.23302C142.255 32.2474 91.8426 133.367 91.6422 233.656Z" fill="#24FD66"/>
<path d="M189.094 242.44H188.259C188.459 142.006 195.284 36.7279 203.456 7.75476L204.269 7.95228C196.097 36.863 189.294 142.058 189.094 242.44Z" fill="#24FD66"/>
<path d="M292.458 237.814V237.367C292.658 137.079 252.822 34.2746 203.657 8.20187L202.543 7.6301L203.779 7.47416C250.54 1.61092 294.951 13.7117 328.964 41.5205C347.052 56.4068 361.354 74.8752 370.826 95.5787C381.014 117.41 386.168 141.435 386.157 166.884C401.433 175.034 408.513 184.13 406.632 193.175C402.635 212.396 359.058 229.487 292.892 237.793L292.458 237.814ZM205.137 8.06672C253.969 35.0958 293.371 137.224 293.293 236.889C358.825 228.572 401.934 211.783 405.841 192.956C407.656 184.224 400.642 175.377 385.556 167.383L385.356 167.268V167.04C385.356 141.611 380.268 117.649 370.103 95.8178C360.668 75.233 346.435 56.8719 328.441 42.0714C294.951 14.6681 251.174 2.60892 205.137 8.06672Z" fill="#24FD66"/>
<path d="M280.89 139.428L280.778 138.648C337.559 131.527 374.924 116.984 378.308 100.714C379.867 93.2084 373.855 85.5883 360.829 78.6958L361.24 78.0097C374.601 85.0893 380.758 92.9901 379.121 100.88C375.681 117.472 338.038 132.255 280.89 139.428Z" fill="#24FD66"/>
<path d="M248.948 57.0413L248.836 56.272C281.925 52.1137 303.702 43.6723 305.617 34.2329C306.508 29.9186 303.012 25.5316 295.486 21.5396L295.898 20.8639C303.758 25.0222 307.41 29.7107 306.43 34.3785C304.448 44.1609 282.404 52.8414 248.948 57.0413Z" fill="#24FD66"/>
<path d="M373.086 219.33H372.251C372.452 119.104 296.878 24.3985 203.79 8.23298L203.935 7.46368C297.401 23.6604 373.287 118.741 373.086 219.33Z" fill="#24FD66"/>
<path d="M406.409 194.152H405.574C405.775 93.9569 315.281 10.572 203.857 8.27456V7.49487C315.749 9.76116 406.61 93.4995 406.409 194.152Z" fill="#24FD66"/>
<path d="M202.799 379.905H201.942L198.902 379.853H197.544C196.308 379.853 194.572 379.769 193.091 379.686C184.698 379.283 176.339 378.398 168.063 377.035C152.954 374.542 138.199 370.448 124.085 364.831C116.974 361.955 110.025 358.742 103.266 355.204C97.0409 351.968 91.0326 348.382 85.2737 344.465C84.294 343.769 83.2363 343.031 82.1341 342.272C78.4043 339.673 74.1736 336.731 71.1007 334.09C70.0765 333.217 68.952 332.26 67.7607 331.273C65.122 329.059 62.3832 326.761 60.2233 324.734C56.4379 321.179 51.6505 316.355 48.3215 312.737C43.6121 307.622 37.7224 300.054 30.2964 289.617C27.1854 284.999 24.3242 280.239 21.7236 275.354C19.0519 270.575 16.6693 265.661 14.587 260.633C10.9111 251.328 7.73778 241.856 5.07894 232.253C3.06377 224.3 1.64981 213.603 0.625528 205.172C0.15792 201.221 0.0799839 196.221 0.0243163 191.813V189.671C-0.0883475 184.026 0.190574 178.38 0.859331 172.768C1.05973 171.344 1.26013 169.763 1.47167 168.121C1.92814 164.493 2.40689 160.74 2.98583 157.652C3.93218 152.621 5.44634 146.123 6.76009 141.487C8.02932 137.006 9.91089 131.278 11.4473 127.245C12.7499 123.804 14.6426 119.552 16.3127 115.809L18.005 111.963C20.3898 106.755 23.1383 101.698 26.2326 96.8264C30.5524 90.0172 37.2548 80.6713 43.3003 73.0096C47.0542 68.3195 51.146 63.8737 55.5472 59.703L58.5755 56.8545C61.0026 54.557 63.7637 51.9373 66.1018 49.9933C70.455 46.3755 76.7343 41.5311 82.1007 37.643C85.9306 34.8674 91.3192 31.5719 93.4569 30.2828C96.5965 28.3908 100.816 26.1245 104.212 24.2532L105.214 23.7127C111.992 20.1071 119.031 16.9461 126.278 14.2525C132.491 11.9966 137.2 10.3852 140.652 9.33524C145.172 7.97339 151.307 6.41402 155.537 5.40563C160.859 4.14773 167.784 2.9834 169.744 2.65073C174.197 1.92303 177.871 1.51759 181.746 1.10175C183.16 0.945817 188.626 0.467611 191.577 0.332466C195.607 0.145341 199.081 -0.0209936 205.015 0.0101938C214.4 0.101592 223.766 0.796289 233.049 2.08936C237.558 2.69231 242.791 3.62794 245.207 4.10615C248.669 4.80267 253.769 5.9774 258.879 7.22489C261.774 7.9526 265.826 9.13772 268.955 10.1669C273.597 11.7055 279.042 13.6495 282.849 15.1361C289.529 17.7351 298.013 21.9662 303.658 24.7626C304.949 25.4488 306.23 26.1557 307.499 26.8418C311.462 29.0353 316.061 31.6758 319.479 34.0461C320.481 34.7426 321.594 35.5015 322.752 36.2812C325.402 38.0901 328.408 40.138 330.701 41.8845C335.319 45.286 339.749 48.905 343.972 52.7274C344.963 53.6838 346.065 54.7234 347.223 55.8461C349.751 58.2164 352.367 60.6594 354.416 62.8009C358.246 66.8033 362.61 71.7205 365.549 75.2759C368.488 78.8313 372.051 83.5926 374.4 87.044C375.692 88.9256 380.156 95.5166 383.162 100.943C388.347 110.006 392.73 119.449 396.266 129.178C399.963 139.314 402.947 152.881 404.06 158.235C405.095 163.214 405.819 169.971 406.287 174.764C406.587 178.195 406.71 182.519 406.81 186.345C406.81 187.717 406.888 189.037 406.932 190.243C407.05 196.589 406.7 202.935 405.886 209.236C405.196 214.569 404.439 220.079 403.581 224.31C402.579 229.311 400.987 235.798 399.618 240.434C398.315 244.884 396.367 250.57 394.786 254.604C393.394 258.118 391.446 262.453 389.653 266.278L388.039 269.823C385.911 274.268 383.529 278.602 380.902 282.808C378.787 286.269 375.881 290.511 373.32 294.243L371.439 297.071C367.871 302.059 363.989 306.846 359.815 311.406C353.447 318.486 346.561 325.145 339.207 331.335C334.754 334.953 328.385 339.777 322.908 343.644C319.868 345.785 315.693 348.312 312.342 350.339L311.551 350.817C304.183 355.121 296.538 358.999 288.661 362.429C285.889 363.573 278.83 366.452 273.341 368.344C269.233 369.758 263.321 371.546 258.534 372.794C251.5 374.638 244.369 376.14 237.168 377.295C231.78 378.148 228.74 378.47 225.211 378.844C223.151 379.062 218.108 379.478 215.38 379.603C211.506 379.79 209.001 379.905 206.329 379.915H202.799V379.905ZM203.656 0.78988C198.58 0.78988 195.362 0.935423 191.677 1.11215C188.738 1.2473 183.304 1.71511 181.902 1.87105C178.027 2.29727 174.375 2.69231 169.944 3.42002C164.656 4.29327 159.367 5.31206 155.805 6.16452C151.585 7.2041 145.473 8.72189 140.964 10.0837C137.523 11.1233 132.836 12.7243 126.635 14.9802C119.428 17.6376 112.43 20.764 105.693 24.3364L104.691 24.877C101.351 26.717 97.0864 29.0353 93.9579 30.8858C91.8314 32.1645 86.4761 35.4495 82.6685 38.1628C77.3133 42.0405 71.0562 46.8745 66.7141 50.4819C64.3984 52.4051 61.6484 55.0145 59.2213 57.3119L56.193 60.1604C51.8067 64.2997 47.7332 68.7181 44.0017 73.3839C37.9562 81.0248 31.2761 90.3394 26.9675 97.1383C23.9065 101.994 21.1915 107.033 18.84 112.223C18.3167 113.418 17.7266 114.718 17.1365 116.069C15.4777 119.812 13.585 124.053 12.2823 127.504C10.757 131.528 8.94227 137.214 7.61738 141.684C6.29249 146.155 4.81174 152.777 3.86539 157.788C3.28644 160.854 2.8077 164.597 2.35123 168.183C2.15082 169.826 1.95041 171.406 1.75001 172.841C1.08082 178.414 0.801901 184.022 0.915002 189.63V191.771C0.981803 196.158 1.05973 201.128 1.52734 205.047C2.52936 213.468 3.93218 224.134 5.98075 232.076C8.62843 241.652 11.7944 251.097 15.4665 260.373C17.536 265.372 19.9038 270.259 22.5586 275.011C25.1402 279.868 27.9828 284.601 31.0757 289.191C36.5809 297.193 42.5809 304.888 49.0452 312.238C52.3853 315.845 57.1282 320.659 60.9024 324.204C63.0512 326.21 65.7678 328.497 68.4064 330.711C69.5866 331.699 70.7222 332.645 71.7465 333.518C74.7971 336.138 79.0167 339.07 82.7242 341.658C83.8375 342.417 84.884 343.155 85.8638 343.852C91.5918 347.744 97.5665 351.309 103.755 354.528C110.49 358.054 117.413 361.256 124.497 364.124C146.3 372.79 169.569 377.798 193.236 378.917C194.672 379 196.397 379.062 197.633 379.083H198.98L202.009 379.135C202.922 379.135 204.035 379.135 205.07 379.135H206.395C209.045 379.135 211.55 379.01 215.302 378.834C218.086 378.699 223.096 378.283 225.155 378.064C228.662 377.69 231.702 377.368 237.057 376.526C244.232 375.38 251.337 373.885 258.344 372.045C263.076 370.808 268.999 369.02 273.085 367.617C278.563 365.735 285.588 362.866 288.36 361.712C296.193 358.3 303.796 354.446 311.128 350.172L311.919 349.684C315.259 347.667 319.423 345.141 322.44 343.02C327.907 339.163 334.286 334.35 338.695 330.753C346.017 324.584 352.873 317.949 359.214 310.897C363.367 306.365 367.226 301.606 370.771 296.644L372.686 293.838C375.235 290.116 378.13 285.895 380.245 282.402C382.86 278.229 385.234 273.93 387.36 269.522L388.974 265.966C390.722 262.151 392.704 257.826 394.084 254.333C395.665 250.321 397.603 244.655 398.905 240.226C400.263 235.6 401.856 229.155 402.858 224.175C403.693 219.954 404.45 214.455 405.14 209.143C405.954 202.883 406.304 196.579 406.186 190.274C406.186 189.058 406.109 187.738 406.064 186.355C405.964 182.55 405.852 178.236 405.552 174.826C405.129 170.055 404.438 163.328 403.325 158.39C402.212 153.037 399.195 139.522 395.532 129.428C392.014 119.725 387.654 110.306 382.494 101.265C379.499 95.87 375.057 89.3103 373.766 87.4286C371.428 84.0188 367.965 79.4238 364.948 75.7229C361.931 72.022 357.689 67.2399 353.814 63.2479C351.777 61.1688 349.172 58.6842 346.656 56.3243C345.542 55.2847 344.429 54.2452 343.393 53.2056C339.194 49.3984 334.787 45.7966 330.189 42.4147L329.911 42.1964C364.992 71.3047 385.456 114.905 386.135 164.129C386.135 164.961 386.135 165.803 386.135 166.645V167.009C385.99 267.65 303.858 359.778 203.2 372.42L203.089 371.65C303.391 359.05 385.133 267.276 385.356 167.061V166.697C385.356 106.994 356.219 55.3055 307.12 27.4863L303.302 25.4072C297.679 22.6211 289.162 18.4004 282.571 15.8118C278.786 14.3356 273.352 12.3916 268.721 10.8634C265.615 9.82385 261.584 8.65951 258.701 7.9422C253.613 6.66351 248.525 5.48879 245.073 4.82345C242.668 4.33485 237.469 3.40962 232.982 2.80667C223.734 1.54271 214.405 0.868884 205.059 0.78988H203.656Z" fill="#24FD66"/>
</svg>
