<svg width="1em" height="1em" viewBox="0 0 496 496" fill="none" xmlns="http://www.w3.org/2000/svg">
<path d="M496 248C496 384.967 384.967 496 248 496C111.033 496 0 384.967 0 248C0 111.033 111.033 0 248 0C384.967 0 496 111.033 496 248ZM354.349 212.67C359.286 179.671 334.158 161.931 299.799 150.097L310.945 105.395L283.732 98.614L272.881 142.138C265.727 140.355 258.379 138.674 251.078 137.008L262.007 93.198L234.809 86.417L223.656 131.103C217.734 129.754 211.921 128.421 206.279 127.019L206.31 126.879L168.78 117.509L161.541 146.571C161.541 146.571 181.732 151.198 181.306 151.484C192.328 154.235 194.32 161.528 193.986 167.309L181.29 218.234C182.05 218.428 183.034 218.707 184.119 219.141C183.212 218.916 182.243 218.668 181.243 218.428L163.447 289.766C162.098 293.114 158.68 298.136 150.976 296.23C151.247 296.625 131.196 291.293 131.196 291.293L117.686 322.44L153.1 331.267C159.688 332.918 166.145 334.646 172.5 336.273L161.238 381.486L188.42 388.267L199.573 343.534C206.782 345.488 214.011 347.363 221.26 349.161L210.145 393.684L237.358 400.465L248.62 355.337C295.024 364.118 329.919 360.576 344.606 318.61C356.442 284.82 344.017 265.329 319.602 252.619C337.382 248.521 350.776 236.827 354.349 212.67V212.67ZM292.172 299.849C283.762 333.639 226.864 315.372 208.417 310.792L223.361 250.893C241.807 255.496 300.961 264.61 292.172 299.849ZM300.589 212.182C292.916 242.918 245.558 227.302 230.196 223.474L243.744 169.147C259.107 172.975 308.58 180.12 300.589 212.182Z" fill="#24FD66"/>
</svg>
