<svg width="100%" height="100%" id="svg" viewBox="0 0 1440 400" xmlns="http://www.w3.org/2000/svg" class="transition duration-300 ease-in-out delay-150"><path d="M 0,400 C 0,400 0,133 0,133 C 98.55502392344502,141.01913875598086 197.11004784689004,149.03827751196172 280,156 C 362.88995215310996,162.96172248803828 430.11483253588506,168.86602870813397 541,159 C 651.8851674641149,149.13397129186603 806.4306220095696,123.4976076555024 899,120 C 991.5693779904304,116.5023923444976 1022.1626794258373,135.14354066985643 1102,141 C 1181.8373205741627,146.85645933014357 1310.9186602870814,139.9282296650718 1440,133 C 1440,133 1440,400 1440,400 Z" stroke="none" stroke-width="0" fill="#18142c88" class="transition-all duration-300 ease-in-out delay-150 path-0"></path><path d="M 0,400 C 0,400 0,266 0,266 C 81.99043062200957,245.444976076555 163.98086124401914,224.88995215311004 256,220 C 348.01913875598086,215.11004784688996 450.06698564593296,225.88516746411483 563,248 C 675.933014354067,270.11483253588517 799.7511961722488,303.5693779904306 909,313 C 1018.2488038277512,322.4306220095694 1112.9282296650717,307.8373205741627 1199,296 C 1285.0717703349283,284.1626794258373 1362.5358851674641,275.08133971291863 1440,266 C 1440,266 1440,400 1440,400 Z" stroke="none" stroke-width="0" fill="#18142cff" class="transition-all duration-300 ease-in-out delay-150 path-1"></path></svg>