<svg width="415" height="499" viewBox="0 0 415 499" fill="none" xmlns="http://www.w3.org/2000/svg">
<g filter="url(#filter0_f_95_1030)">
<path d="M388.83 449.454C387.357 454.876 381.491 459.589 370.518 462.945C359.705 466.252 344.716 467.983 326.529 468.042C290.193 468.162 241.678 461.614 189.637 448.323C137.595 435.032 92.0482 417.557 60.4873 400.097C44.6899 391.358 32.5242 382.693 24.7939 374.649C16.9498 366.488 14.2386 359.584 15.7112 354.162C17.1838 348.74 23.0503 344.027 34.0227 340.671C44.8359 337.363 59.8252 335.633 78.0123 335.573C114.348 335.454 162.863 342.002 214.904 355.293C266.946 368.584 312.493 386.059 344.054 403.518C359.851 412.257 372.017 420.923 379.747 428.966C387.591 437.128 390.302 444.032 388.83 449.454Z" stroke="#24FD66" stroke-width="5"/>
</g>
<g filter="url(#filter1_f_95_1030)">
<path d="M398.527 378.369C399.267 383.924 395.666 390.431 386.803 397.549C378.069 404.562 364.854 411.638 348.029 418.335C314.413 431.713 266.926 443.363 213.553 450.053C160.18 456.744 111.199 457.186 75.1797 452.536C57.1511 450.209 42.5149 446.623 32.2295 441.995C21.7907 437.297 16.6017 431.891 15.8612 426.336C15.1207 420.782 18.7216 414.274 27.5854 407.157C36.3189 400.144 49.5337 393.067 66.3594 386.371C99.9749 372.992 147.462 361.342 200.835 354.652C254.208 347.962 303.19 347.519 339.208 352.169C357.237 354.496 371.873 358.082 382.159 362.711C392.597 367.409 397.786 372.814 398.527 378.369Z" stroke="#24FD66" stroke-width="5"/>
</g>
<g filter="url(#filter2_df_95_1030)">
<path d="M207.422 322.548L112.957 203.805L207.422 255.664M207.422 322.548V255.664M207.422 322.548L301.386 203.805L207.422 255.664" stroke="#FFFDFD" stroke-width="5" shape-rendering="crispEdges"/>
</g>
<g filter="url(#filter3_f_95_1030)">
<path d="M115.956 160.185L207.921 8M207.921 8L204.947 203.632C204.936 204.377 205.715 204.873 206.385 204.546L296.416 160.659C296.94 160.403 297.135 159.756 296.84 159.253L207.921 8Z" stroke="white" stroke-width="4"/>
</g>
<g filter="url(#filter4_df_95_1030)">
<path d="M204.489 205.531L115.895 162.104C115.13 161.73 115.154 160.631 115.935 160.29L204.529 121.584C204.78 121.474 205.066 121.472 205.318 121.579L296.833 160.286C297.629 160.622 297.653 161.74 296.873 162.11L205.358 205.537C205.083 205.668 204.763 205.665 204.489 205.531Z" stroke="white" stroke-width="4" shape-rendering="crispEdges"/>
</g>
<defs>
<filter id="filter0_f_95_1030" x="2.81442" y="323.081" width="398.912" height="157.454" filterUnits="userSpaceOnUse" color-interpolation-filters="sRGB">
<feFlood flood-opacity="0" result="BackgroundImageFix"/>
<feBlend mode="normal" in="SourceGraphic" in2="BackgroundImageFix" result="shape"/>
<feGaussianBlur stdDeviation="5" result="effect1_foregroundBlur_95_1030"/>
</filter>
<filter id="filter1_f_95_1030" x="3.26297" y="336.589" width="407.862" height="131.527" filterUnits="userSpaceOnUse" color-interpolation-filters="sRGB">
<feFlood flood-opacity="0" result="BackgroundImageFix"/>
<feBlend mode="normal" in="SourceGraphic" in2="BackgroundImageFix" result="shape"/>
<feGaussianBlur stdDeviation="5" result="effect1_foregroundBlur_95_1030"/>
</filter>
<filter id="filter2_df_95_1030" x="106.001" y="186.613" width="202.346" height="144.957" filterUnits="userSpaceOnUse" color-interpolation-filters="sRGB">
<feFlood flood-opacity="0" result="BackgroundImageFix"/>
<feColorMatrix in="SourceAlpha" type="matrix" values="0 0 0 0 0 0 0 0 0 0 0 0 0 0 0 0 0 0 127 0" result="hardAlpha"/>
<feOffset dy="-11"/>
<feGaussianBlur stdDeviation="2"/>
<feComposite in2="hardAlpha" operator="out"/>
<feColorMatrix type="matrix" values="0 0 0 0 0.141176 0 0 0 0 0.992157 0 0 0 0 0.4 0 0 0 1 0"/>
<feBlend mode="normal" in2="BackgroundImageFix" result="effect1_dropShadow_95_1030"/>
<feBlend mode="normal" in="SourceGraphic" in2="effect1_dropShadow_95_1030" result="shape"/>
<feGaussianBlur stdDeviation="2.5" result="effect2_foregroundBlur_95_1030"/>
</filter>
<filter id="filter3_f_95_1030" x="110.244" y="0.0938492" width="192.734" height="210.557" filterUnits="userSpaceOnUse" color-interpolation-filters="sRGB">
<feFlood flood-opacity="0" result="BackgroundImageFix"/>
<feBlend mode="normal" in="SourceGraphic" in2="BackgroundImageFix" result="shape"/>
<feGaussianBlur stdDeviation="2" result="effect1_foregroundBlur_95_1030"/>
</filter>
<filter id="filter4_df_95_1030" x="108.335" y="114.5" width="196.109" height="110.133" filterUnits="userSpaceOnUse" color-interpolation-filters="sRGB">
<feFlood flood-opacity="0" result="BackgroundImageFix"/>
<feColorMatrix in="SourceAlpha" type="matrix" values="0 0 0 0 0 0 0 0 0 0 0 0 0 0 0 0 0 0 127 0" result="hardAlpha"/>
<feOffset dy="12"/>
<feGaussianBlur stdDeviation="2.5"/>
<feComposite in2="hardAlpha" operator="out"/>
<feColorMatrix type="matrix" values="0 0 0 0 0.141176 0 0 0 0 0.992157 0 0 0 0 0.4 0 0 0 1 0"/>
<feBlend mode="normal" in2="BackgroundImageFix" result="effect1_dropShadow_95_1030"/>
<feBlend mode="normal" in="SourceGraphic" in2="effect1_dropShadow_95_1030" result="shape"/>
<feGaussianBlur stdDeviation="2.5" result="effect2_foregroundBlur_95_1030"/>
</filter>
</defs>
</svg>
